<svg xmlns="http://www.w3.org/2000/svg" xmlns:xlink="http://www.w3.org/1999/xlink" width="1920" zoomAndPan="magnify" viewBox="0 0 1440 809.999993" height="1080" preserveAspectRatio="xMidYMid meet" version="1.0"><defs><g/><clipPath id="f1880d3e28"><path d="M 722 387.46875 L 982.945312 387.46875 L 982.945312 648 L 722 648 Z M 722 387.46875 " clip-rule="nonzero"/></clipPath><clipPath id="db74cb8c28"><path d="M 457.195312 387.46875 L 850 387.46875 L 850 779 L 457.195312 779 Z M 457.195312 387.46875 " clip-rule="nonzero"/></clipPath></defs><g fill="#000000" fill-opacity="0.4314"><g transform="translate(396.586335, 580.888488)"><g><path d="M -41.5625 -90.765625 L -27.3125 -145.34375 L 30.609375 -117.15625 L 24.109375 -92.296875 L 9.578125 -91.796875 L 9.359375 -90.953125 C 12.609375 -86.210938 15.054688 -80.960938 16.703125 -75.203125 C 18.359375 -69.441406 18.140625 -62.5625 16.046875 -54.5625 C 14.441406 -48.382812 11.875 -42.710938 8.34375 -37.546875 C 4.820312 -32.390625 0.269531 -28.175781 -5.3125 -24.90625 C -10.894531 -21.632812 -17.613281 -19.597656 -25.46875 -18.796875 C -33.332031 -18.003906 -42.320312 -18.929688 -52.4375 -21.578125 C -63.394531 -24.441406 -73.347656 -28.84375 -82.296875 -34.78125 C -91.253906 -40.71875 -98.609375 -48.039062 -104.359375 -56.75 C -110.109375 -65.457031 -113.835938 -75.4375 -115.546875 -86.6875 C -117.265625 -97.9375 -116.363281 -110.300781 -112.84375 -123.78125 C -110.125 -134.175781 -106.5625 -142.925781 -102.15625 -150.03125 C -97.75 -157.132812 -93.171875 -163.742188 -88.421875 -169.859375 L -49.640625 -151.171875 L -58.9375 -115.5625 C -60.457031 -116.101562 -62.234375 -116.785156 -64.265625 -117.609375 C -66.296875 -118.441406 -68.453125 -119.234375 -70.734375 -119.984375 C -73.015625 -120.734375 -75.257812 -121.472656 -77.46875 -122.203125 C -79.6875 -122.929688 -81.632812 -123.519531 -83.3125 -123.96875 C -84.445312 -124.257812 -85.765625 -124.523438 -87.265625 -124.765625 C -88.773438 -125.003906 -90.304688 -125.023438 -91.859375 -124.828125 C -93.410156 -124.628906 -94.785156 -124.085938 -95.984375 -123.203125 C -97.191406 -122.316406 -98.070312 -120.820312 -98.625 -118.71875 C -99.582031 -115.070312 -98.945312 -111.34375 -96.71875 -107.53125 C -94.488281 -103.726562 -91.191406 -99.976562 -86.828125 -96.28125 C -82.460938 -92.59375 -77.347656 -89.039062 -71.484375 -85.625 C -65.628906 -82.21875 -59.59375 -79.066406 -53.375 -76.171875 C -47.15625 -73.273438 -41 -70.691406 -34.90625 -68.421875 C -28.820312 -66.160156 -23.460938 -64.425781 -18.828125 -63.21875 C -17.421875 -62.851562 -15.644531 -62.460938 -13.5 -62.046875 C -11.363281 -61.640625 -9.175781 -61.554688 -6.9375 -61.796875 C -4.695312 -62.035156 -2.644531 -62.695312 -0.78125 -63.78125 C 1.070312 -64.875 2.367188 -66.828125 3.109375 -69.640625 C 4.316406 -74.273438 2.960938 -79.429688 -0.953125 -85.109375 C -4.867188 -90.785156 -12.429688 -96.289062 -23.640625 -101.625 L -28.265625 -83.921875 Z M -41.5625 -90.765625 "/></g></g></g><g fill="#000000" fill-opacity="0.4314"><g transform="translate(425.042419, 467.18185)"><g><path d="M -100.03125 -99.90625 L -50.15625 -176.84375 L -38.15625 -164.90625 L -62.328125 -127.625 L -32.03125 -97.078125 L -11.78125 -128.328125 L 0.03125 -116.53125 L -20.234375 -85.28125 L 13.421875 -51.515625 L 37.59375 -88.796875 L 49.875 -76.921875 L 0 0 Z M -100.03125 -99.90625 "/></g></g></g><g fill="#000000" fill-opacity="0.4314"><g transform="translate(470.147269, 390.431296)"><g><path d="M 23 -178.546875 L -3.828125 -155.953125 L 54.796875 -46.171875 L 18.828125 -15.859375 L -39.796875 -125.65625 L -66.28125 -103.328125 L -73.9375 -118.53125 L 15.171875 -193.59375 Z M 23 -178.546875 "/></g></g></g><g fill="#000000" fill-opacity="0.4314"><g transform="translate(541.846928, 323.198062)"><g><path d="M 88.625 -147.171875 C 91.707031 -139.191406 92.316406 -130.953125 90.453125 -122.453125 C 88.597656 -113.953125 83.207031 -105.953125 74.28125 -98.453125 L 121.296875 -46.8125 L 75.984375 -29.328125 L 36.390625 -78.703125 L 34.15625 -77.84375 L 43.890625 -16.9375 L 0 0 L -22.359375 -139.609375 L 31.0625 -160.21875 C 37.289062 -162.625 43.328125 -164.523438 49.171875 -165.921875 C 55.015625 -167.328125 60.429688 -167.707031 65.421875 -167.0625 C 70.421875 -166.414062 74.910156 -164.566406 78.890625 -161.515625 C 82.867188 -158.460938 86.113281 -153.679688 88.625 -147.171875 Z M 41.328125 -95.546875 C 44.847656 -96.910156 47.398438 -99.257812 48.984375 -102.59375 C 50.578125 -105.925781 51.5 -109.585938 51.75 -113.578125 C 52 -117.578125 51.71875 -121.632812 50.90625 -125.75 C 50.09375 -129.863281 49.140625 -133.347656 48.046875 -136.203125 C 46.679688 -139.710938 44.90625 -142.484375 42.71875 -144.515625 C 40.539062 -146.554688 37.421875 -146.796875 33.359375 -145.234375 L 24.21875 -141.703125 L 31.78125 -91.859375 Z M 41.328125 -95.546875 "/></g></g></g><g fill="#000000" fill-opacity="0.4314"><g transform="translate(646.950533, 278.815363)"><g><path d="M 120.625 -2.828125 L 69.671875 -1.640625 L 65.8125 -36.171875 L 25.53125 -35.234375 L 10.890625 -0.25 L -10.234375 0.234375 L 50.75 -139.515625 L 102.34375 -140.734375 Z M 32.328125 -51.296875 L 63.90625 -52.046875 L 57.515625 -111.140625 Z M 32.328125 -51.296875 "/></g></g></g><g fill="#000000" fill-opacity="0.4314"><g transform="translate(754.14496, 271.316807)"><g><path d="M 110.015625 37 L 61.703125 20.765625 L 70.671875 -81.703125 L 18.578125 6.25 L 0 0 L 71.96875 -121.703125 L 121.296875 -105.109375 L 110.671875 -1.828125 L 163.390625 -90.953125 L 182.390625 -84.5625 Z M 110.015625 37 "/></g></g></g><g fill="#000000" fill-opacity="0.4314"><g transform="translate(865.356174, 304.962734)"><g><path d="M 98.65625 -21.25 L 178.328125 -34.8125 L 197.5625 -19.453125 L 126.40625 -8.5625 L 98.859375 78.984375 L 61.75 49.34375 L 84.71875 -10.078125 L 36.75 29.359375 L 0 0 L 109.296875 -89.6875 L 146.21875 -60.203125 Z M 98.65625 -21.25 "/></g></g></g><g fill="#000000" fill-opacity="0.4314"><g transform="translate(952.703195, 372.64884)"><g><path d="M 131.453125 -52.03125 L 182.203125 24.328125 L 166.46875 30.59375 L 141.890625 -6.40625 L 101.828125 9.21875 L 122.4375 40.234375 L 106.890625 46.359375 L 86.28125 15.359375 L 41.9375 32.8125 L 66.515625 69.8125 L 50.734375 76.375 L 0 0 Z M 131.453125 -52.03125 "/></g></g></g><g fill="#000000" fill-opacity="0.4314"><g transform="translate(1006.477186, 441.896641)"><g><path d="M 0 0 L 141.203125 -7.296875 L 156.328125 49.296875 C 158.648438 57.992188 159.800781 65.835938 159.78125 72.828125 C 159.769531 79.816406 158.300781 85.992188 155.375 91.359375 C 152.457031 96.734375 147.992188 101.382812 141.984375 105.3125 C 135.972656 109.25 128.195312 112.492188 118.65625 115.046875 C 108.40625 117.785156 98.023438 119.164062 87.515625 119.1875 C 77.003906 119.21875 67.085938 117.242188 57.765625 113.265625 C 48.441406 109.296875 40.128906 103.066406 32.828125 94.578125 C 25.523438 86.085938 19.960938 74.6875 16.140625 60.375 Z M 30.140625 53.71875 C 31.378906 58.34375 34.398438 61.925781 39.203125 64.46875 C 44.015625 67.019531 49.75 68.796875 56.40625 69.796875 C 63.0625 70.796875 70.234375 71.207031 77.921875 71.03125 C 85.617188 70.863281 92.972656 70.398438 99.984375 69.640625 C 107.003906 68.890625 113.242188 68.050781 118.703125 67.125 C 124.160156 66.195312 128.007812 65.429688 130.25 64.828125 C 134.601562 63.671875 137.769531 61.882812 139.75 59.46875 C 141.738281 57.0625 142.15625 53.6875 141 49.34375 L 138.296875 39.234375 L 27.71875 44.671875 Z M 30.140625 53.71875 "/></g></g></g><g fill="#5ce1e6" fill-opacity="1"><g transform="translate(396.586335, 567.276985)"><g><path d="M -41.5625 -90.765625 L -27.3125 -145.34375 L 30.609375 -117.15625 L 24.109375 -92.296875 L 9.578125 -91.796875 L 9.359375 -90.953125 C 12.609375 -86.210938 15.054688 -80.960938 16.703125 -75.203125 C 18.359375 -69.441406 18.140625 -62.5625 16.046875 -54.5625 C 14.441406 -48.382812 11.875 -42.710938 8.34375 -37.546875 C 4.820312 -32.390625 0.269531 -28.175781 -5.3125 -24.90625 C -10.894531 -21.632812 -17.613281 -19.597656 -25.46875 -18.796875 C -33.332031 -18.003906 -42.320312 -18.929688 -52.4375 -21.578125 C -63.394531 -24.441406 -73.347656 -28.84375 -82.296875 -34.78125 C -91.253906 -40.71875 -98.609375 -48.039062 -104.359375 -56.75 C -110.109375 -65.457031 -113.835938 -75.4375 -115.546875 -86.6875 C -117.265625 -97.9375 -116.363281 -110.300781 -112.84375 -123.78125 C -110.125 -134.175781 -106.5625 -142.925781 -102.15625 -150.03125 C -97.75 -157.132812 -93.171875 -163.742188 -88.421875 -169.859375 L -49.640625 -151.171875 L -58.9375 -115.5625 C -60.457031 -116.101562 -62.234375 -116.785156 -64.265625 -117.609375 C -66.296875 -118.441406 -68.453125 -119.234375 -70.734375 -119.984375 C -73.015625 -120.734375 -75.257812 -121.472656 -77.46875 -122.203125 C -79.6875 -122.929688 -81.632812 -123.519531 -83.3125 -123.96875 C -84.445312 -124.257812 -85.765625 -124.523438 -87.265625 -124.765625 C -88.773438 -125.003906 -90.304688 -125.023438 -91.859375 -124.828125 C -93.410156 -124.628906 -94.785156 -124.085938 -95.984375 -123.203125 C -97.191406 -122.316406 -98.070312 -120.820312 -98.625 -118.71875 C -99.582031 -115.070312 -98.945312 -111.34375 -96.71875 -107.53125 C -94.488281 -103.726562 -91.191406 -99.976562 -86.828125 -96.28125 C -82.460938 -92.59375 -77.347656 -89.039062 -71.484375 -85.625 C -65.628906 -82.21875 -59.59375 -79.066406 -53.375 -76.171875 C -47.15625 -73.273438 -41 -70.691406 -34.90625 -68.421875 C -28.820312 -66.160156 -23.460938 -64.425781 -18.828125 -63.21875 C -17.421875 -62.851562 -15.644531 -62.460938 -13.5 -62.046875 C -11.363281 -61.640625 -9.175781 -61.554688 -6.9375 -61.796875 C -4.695312 -62.035156 -2.644531 -62.695312 -0.78125 -63.78125 C 1.070312 -64.875 2.367188 -66.828125 3.109375 -69.640625 C 4.316406 -74.273438 2.960938 -79.429688 -0.953125 -85.109375 C -4.867188 -90.785156 -12.429688 -96.289062 -23.640625 -101.625 L -28.265625 -83.921875 Z M -41.5625 -90.765625 "/></g></g></g><g fill="#5ce1e6" fill-opacity="1"><g transform="translate(425.042419, 453.570346)"><g><path d="M -100.03125 -99.90625 L -50.15625 -176.84375 L -38.15625 -164.90625 L -62.328125 -127.625 L -32.03125 -97.078125 L -11.78125 -128.328125 L 0.03125 -116.53125 L -20.234375 -85.28125 L 13.421875 -51.515625 L 37.59375 -88.796875 L 49.875 -76.921875 L 0 0 Z M -100.03125 -99.90625 "/></g></g></g><g fill="#5ce1e6" fill-opacity="1"><g transform="translate(470.147269, 376.819795)"><g><path d="M 23 -178.546875 L -3.828125 -155.953125 L 54.796875 -46.171875 L 18.828125 -15.859375 L -39.796875 -125.65625 L -66.28125 -103.328125 L -73.9375 -118.53125 L 15.171875 -193.59375 Z M 23 -178.546875 "/></g></g></g><g fill="#f57d11" fill-opacity="1"><g transform="translate(541.846928, 309.586544)"><g><path d="M 88.625 -147.171875 C 91.707031 -139.191406 92.316406 -130.953125 90.453125 -122.453125 C 88.597656 -113.953125 83.207031 -105.953125 74.28125 -98.453125 L 121.296875 -46.8125 L 75.984375 -29.328125 L 36.390625 -78.703125 L 34.15625 -77.84375 L 43.890625 -16.9375 L 0 0 L -22.359375 -139.609375 L 31.0625 -160.21875 C 37.289062 -162.625 43.328125 -164.523438 49.171875 -165.921875 C 55.015625 -167.328125 60.429688 -167.707031 65.421875 -167.0625 C 70.421875 -166.414062 74.910156 -164.566406 78.890625 -161.515625 C 82.867188 -158.460938 86.113281 -153.679688 88.625 -147.171875 Z M 41.328125 -95.546875 C 44.847656 -96.910156 47.398438 -99.257812 48.984375 -102.59375 C 50.578125 -105.925781 51.5 -109.585938 51.75 -113.578125 C 52 -117.578125 51.71875 -121.632812 50.90625 -125.75 C 50.09375 -129.863281 49.140625 -133.347656 48.046875 -136.203125 C 46.679688 -139.710938 44.90625 -142.484375 42.71875 -144.515625 C 40.539062 -146.554688 37.421875 -146.796875 33.359375 -145.234375 L 24.21875 -141.703125 L 31.78125 -91.859375 Z M 41.328125 -95.546875 "/></g></g></g><g fill="#f57d11" fill-opacity="1"><g transform="translate(646.950533, 265.203852)"><g><path d="M 120.625 -2.828125 L 69.671875 -1.640625 L 65.8125 -36.171875 L 25.53125 -35.234375 L 10.890625 -0.25 L -10.234375 0.234375 L 50.75 -139.515625 L 102.34375 -140.734375 Z M 32.328125 -51.296875 L 63.90625 -52.046875 L 57.515625 -111.140625 Z M 32.328125 -51.296875 "/></g></g></g><g fill="#f57d11" fill-opacity="1"><g transform="translate(754.14496, 257.705296)"><g><path d="M 110.015625 37 L 61.703125 20.765625 L 70.671875 -81.703125 L 18.578125 6.25 L 0 0 L 71.96875 -121.703125 L 121.296875 -105.109375 L 110.671875 -1.828125 L 163.390625 -90.953125 L 182.390625 -84.5625 Z M 110.015625 37 "/></g></g></g><g fill="#f57d11" fill-opacity="1"><g transform="translate(865.356174, 291.351217)"><g><path d="M 98.65625 -21.25 L 178.328125 -34.8125 L 197.5625 -19.453125 L 126.40625 -8.5625 L 98.859375 78.984375 L 61.75 49.34375 L 84.71875 -10.078125 L 36.75 29.359375 L 0 0 L 109.296875 -89.6875 L 146.21875 -60.203125 Z M 98.65625 -21.25 "/></g></g></g><g fill="#f57d11" fill-opacity="1"><g transform="translate(952.703195, 359.037337)"><g><path d="M 131.453125 -52.03125 L 182.203125 24.328125 L 166.46875 30.59375 L 141.890625 -6.40625 L 101.828125 9.21875 L 122.4375 40.234375 L 106.890625 46.359375 L 86.28125 15.359375 L 41.9375 32.8125 L 66.515625 69.8125 L 50.734375 76.375 L 0 0 Z M 131.453125 -52.03125 "/></g></g></g><g fill="#f57d11" fill-opacity="1"><g transform="translate(1006.477186, 428.285106)"><g><path d="M 0 0 L 141.203125 -7.296875 L 156.328125 49.296875 C 158.648438 57.992188 159.800781 65.835938 159.78125 72.828125 C 159.769531 79.816406 158.300781 85.992188 155.375 91.359375 C 152.457031 96.734375 147.992188 101.382812 141.984375 105.3125 C 135.972656 109.25 128.195312 112.492188 118.65625 115.046875 C 108.40625 117.785156 98.023438 119.164062 87.515625 119.1875 C 77.003906 119.21875 67.085938 117.242188 57.765625 113.265625 C 48.441406 109.296875 40.128906 103.066406 32.828125 94.578125 C 25.523438 86.085938 19.960938 74.6875 16.140625 60.375 Z M 30.140625 53.71875 C 31.378906 58.34375 34.398438 61.925781 39.203125 64.46875 C 44.015625 67.019531 49.75 68.796875 56.40625 69.796875 C 63.0625 70.796875 70.234375 71.207031 77.921875 71.03125 C 85.617188 70.863281 92.972656 70.398438 99.984375 69.640625 C 107.003906 68.890625 113.242188 68.050781 118.703125 67.125 C 124.160156 66.195312 128.007812 65.429688 130.25 64.828125 C 134.601562 63.671875 137.769531 61.882812 139.75 59.46875 C 141.738281 57.0625 142.15625 53.6875 141 49.34375 L 138.296875 39.234375 L 27.71875 44.671875 Z M 30.140625 53.71875 "/></g></g></g><path fill="#000000" d="M 689.617188 671.359375 L 680.335938 676.6875 L 669.917969 683.03125 C 669.917969 683.03125 604.765625 747.511719 604.289062 747.390625 C 603.867188 747.332031 601.953125 748.46875 599.378906 749.964844 C 596.800781 751.460938 593.03125 755.414062 591.414062 759.664062 C 590.214844 762.957031 596.203125 769.660156 597.941406 771.515625 C 597.941406 771.515625 598 771.578125 598.179688 771.757812 C 598.300781 771.9375 598.417969 771.996094 598.417969 771.996094 C 600.277344 773.730469 606.984375 779.71875 610.277344 778.519531 C 614.527344 776.90625 618.480469 773.191406 619.976562 770.558594 C 621.472656 767.984375 622.671875 766.128906 622.550781 765.648438 C 622.492188 765.230469 686.925781 700.035156 686.925781 700.035156 L 693.273438 689.617188 L 698.601562 680.339844 L 718.601562 660.105469 L 709.859375 651.363281 Z M 689.617188 671.359375 " fill-opacity="1" fill-rule="nonzero"/><g clip-path="url(#f1880d3e28)"><path fill="#000000" d="M 981.898438 453.503906 C 981.421875 450.570312 980.761719 447.695312 979.925781 444.882812 C 979.746094 444.34375 979.625 443.804688 979.445312 443.265625 C 978.246094 439.433594 976.75 435.660156 974.953125 432.070312 C 974.175781 430.511719 973.335938 428.957031 972.4375 427.460938 C 972.199219 427.039062 971.898438 426.5625 971.660156 426.144531 C 968.847656 421.53125 965.492188 417.222656 961.660156 413.269531 C 961.300781 412.914062 961 412.554688 960.640625 412.195312 C 960.28125 411.835938 959.921875 411.476562 959.5625 411.117188 C 956.089844 407.523438 952.378906 404.351562 948.367188 401.539062 C 947.949219 401.238281 947.527344 400.9375 947.109375 400.699219 C 944.355469 398.84375 941.480469 397.167969 938.546875 395.671875 C 936.390625 394.59375 934.234375 393.636719 932.019531 392.796875 C 931.539062 392.617188 931 392.4375 930.460938 392.199219 C 926.152344 390.640625 921.660156 389.445312 917.046875 388.726562 C 915.253906 388.425781 913.394531 388.1875 911.597656 388.007812 C 910.941406 387.949219 910.28125 387.886719 909.625 387.828125 C 907.585938 387.707031 905.550781 387.648438 903.515625 387.707031 C 902.855469 387.707031 902.136719 387.769531 901.480469 387.769531 C 900.28125 387.828125 899.023438 387.886719 897.828125 388.007812 C 893.335938 388.425781 889.144531 389.324219 885.550781 390.523438 C 885.011719 390.703125 884.53125 390.882812 883.992188 391.0625 C 883.753906 391.179688 883.515625 391.242188 883.277344 391.359375 C 879.082031 393.097656 875.191406 395.011719 871.359375 397.226562 C 870.941406 397.464844 870.460938 397.765625 870.042969 398.003906 C 866.328125 400.21875 862.675781 402.734375 858.902344 405.609375 C 858.484375 405.90625 858.125 406.207031 857.707031 406.507812 C 854.472656 409.082031 851.117188 411.894531 847.527344 415.128906 C 847.167969 415.425781 846.808594 415.785156 846.449219 416.144531 C 843.394531 418.898438 840.222656 421.953125 836.808594 425.246094 C 836.449219 425.605469 836.089844 425.902344 835.730469 426.261719 C 833.214844 428.71875 830.578125 431.351562 827.765625 434.105469 C 827.285156 434.585938 826.808594 435.121094 826.269531 435.601562 C 825.910156 435.960938 825.609375 436.320312 825.25 436.679688 C 822.4375 439.734375 819.5625 443.203125 816.808594 446.976562 C 816.507812 447.394531 816.207031 447.753906 815.910156 448.175781 C 813.394531 451.644531 810.9375 455.417969 808.484375 459.488281 C 808.242188 459.90625 807.945312 460.386719 807.707031 460.804688 C 806.808594 462.300781 805.910156 463.859375 805.011719 465.414062 C 803.691406 467.808594 802.316406 470.324219 801 472.898438 C 800.757812 473.378906 800.519531 473.796875 800.28125 474.277344 C 798.242188 478.347656 796.207031 482.539062 794.230469 486.96875 C 793.992188 487.445312 793.8125 487.925781 793.574219 488.40625 C 791.777344 492.476562 789.980469 496.667969 788.242188 501.035156 C 788.183594 501.214844 788.0625 501.457031 788.003906 501.636719 C 787.824219 502.113281 787.585938 502.652344 787.40625 503.132812 C 786.328125 505.824219 785.371094 508.460938 784.410156 511.035156 C 783.992188 512.113281 783.632812 513.191406 783.214844 514.265625 C 782.914062 515.105469 782.613281 515.945312 782.316406 516.78125 C 782.136719 517.320312 781.957031 517.800781 781.777344 518.339844 C 776.867188 532.40625 774.171875 542.34375 774.171875 542.523438 L 773.632812 544.558594 L 771.894531 548.210938 L 770.039062 552.164062 L 759.859375 573.476562 L 740.160156 616.042969 L 723.210938 638.132812 L 722.015625 639.269531 L 730.699219 647.949219 L 731.835938 646.753906 L 753.929688 629.8125 L 778.484375 618.375 L 778.542969 618.4375 L 778.664062 618.316406 L 796.449219 610.054688 L 821.957031 598.441406 L 825.789062 596.703125 L 825.847656 596.703125 L 827.824219 596.164062 C 827.945312 596.105469 837.945312 593.472656 852.015625 588.5625 C 852.554688 588.382812 853.035156 588.203125 853.574219 588.023438 C 855.671875 587.304688 857.886719 586.46875 860.160156 585.628906 C 861.300781 585.210938 862.4375 584.789062 863.574219 584.371094 C 864.773438 583.894531 866.03125 583.414062 867.226562 582.933594 C 867.707031 582.753906 868.246094 582.515625 868.722656 582.335938 C 868.902344 582.277344 869.144531 582.15625 869.324219 582.097656 C 873.695312 580.359375 877.886719 578.566406 881.957031 576.769531 C 882.4375 576.527344 882.917969 576.351562 883.394531 576.109375 C 887.828125 574.132812 892.078125 572.097656 896.089844 570.0625 C 896.570312 569.824219 896.988281 569.585938 897.46875 569.34375 C 900.042969 568.027344 902.558594 566.710938 904.953125 565.335938 C 906.507812 564.4375 908.066406 563.539062 909.5625 562.640625 C 909.984375 562.402344 910.460938 562.101562 910.878906 561.863281 C 914.953125 559.40625 918.726562 556.953125 922.199219 554.4375 C 922.617188 554.140625 923.035156 553.839844 923.394531 553.539062 C 927.226562 550.726562 930.640625 547.914062 933.695312 545.097656 C 934.054688 544.738281 934.414062 544.441406 934.773438 544.082031 C 935.3125 543.601562 935.792969 543.125 936.269531 542.585938 C 939.023438 539.769531 941.660156 537.136719 944.113281 534.621094 C 944.472656 534.261719 944.832031 533.902344 945.132812 533.542969 C 948.425781 530.132812 951.480469 526.960938 954.234375 523.90625 C 954.59375 523.546875 954.894531 523.1875 955.253906 522.828125 C 958.425781 519.296875 961.300781 515.945312 963.875 512.652344 C 964.175781 512.230469 964.476562 511.871094 964.773438 511.453125 C 967.648438 507.683594 970.164062 504.03125 972.378906 500.316406 C 972.617188 499.898438 972.917969 499.421875 973.15625 499 C 975.375 495.167969 977.289062 491.277344 979.027344 487.085938 C 979.144531 486.847656 979.207031 486.609375 979.324219 486.371094 C 979.503906 485.890625 979.683594 485.351562 979.863281 484.8125 C 981.0625 481.21875 981.960938 477.03125 982.378906 472.539062 C 982.5 471.34375 982.558594 470.085938 982.617188 468.886719 C 982.679688 468.230469 982.679688 467.511719 982.679688 466.851562 C 982.679688 466.792969 982.679688 466.734375 982.679688 466.671875 C 982.679688 465.953125 982.679688 465.296875 982.679688 464.578125 C 982.796875 460.984375 982.5 457.273438 981.898438 453.503906 Z M 974.59375 454.699219 C 974.835938 456.257812 975.074219 457.8125 975.195312 459.308594 L 970.28125 454.398438 L 973.875 450.867188 C 974.117188 452.183594 974.355469 453.503906 974.59375 454.699219 Z M 915.851562 396.03125 C 918.484375 396.449219 921.359375 397.105469 924.535156 398.066406 C 925.074219 398.246094 925.613281 398.363281 926.152344 398.542969 C 931 400.160156 936.332031 402.496094 941.71875 405.96875 C 942.140625 406.265625 942.558594 406.507812 942.976562 406.804688 C 946.75 409.378906 950.582031 412.492188 954.234375 416.265625 L 954.292969 416.324219 L 954.355469 416.382812 C 954.714844 416.742188 955.011719 417.042969 955.371094 417.402344 C 955.730469 417.761719 956.089844 418.121094 956.390625 418.480469 C 960.460938 422.789062 963.695312 427.160156 966.269531 431.53125 C 966.511719 431.949219 966.808594 432.429688 967.050781 432.847656 C 970.28125 438.65625 972.257812 444.28125 973.515625 449.25 L 969.324219 453.382812 L 957.886719 441.949219 L 967.109375 432.847656 C 966.871094 432.429688 966.628906 431.949219 966.332031 431.53125 L 956.871094 440.871094 L 945.433594 429.433594 L 956.332031 418.421875 C 955.972656 418.0625 955.671875 417.703125 955.3125 417.34375 L 944.175781 428.296875 L 932.738281 416.863281 L 942.917969 406.804688 C 942.5 406.507812 942.078125 406.265625 941.660156 405.96875 L 931.660156 415.84375 L 920.222656 404.410156 L 926.152344 398.605469 C 925.613281 398.425781 925.074219 398.246094 924.535156 398.125 L 919.203125 403.394531 L 911.300781 395.492188 C 912.796875 395.550781 914.292969 395.730469 915.851562 396.03125 Z M 838.183594 510.078125 L 847.644531 500.738281 L 859.082031 512.171875 L 849.621094 521.511719 Z M 848.605469 522.589844 L 839.144531 531.929688 L 827.707031 520.492188 L 837.167969 511.152344 Z M 848.664062 499.71875 L 858.125 490.378906 L 869.5625 501.816406 L 860.101562 511.152344 Z M 901.121094 470.804688 L 891.660156 480.082031 L 880.222656 468.648438 L 889.683594 459.308594 Z M 890.699219 458.292969 L 900.160156 448.953125 L 911.597656 460.386719 L 902.136719 469.726562 Z M 890.640625 481.160156 L 881.179688 490.5 L 869.742188 479.066406 L 879.203125 469.726562 Z M 880.101562 491.519531 L 870.640625 500.855469 L 859.203125 489.421875 L 868.664062 480.082031 Z M 870.640625 502.894531 L 882.078125 514.328125 L 872.617188 523.667969 L 861.179688 512.230469 Z M 871.71875 501.875 L 881.179688 492.535156 L 892.617188 503.96875 L 883.15625 513.308594 Z M 882.199219 491.519531 L 891.660156 482.179688 L 903.097656 493.613281 L 893.636719 502.953125 Z M 892.738281 481.160156 L 902.199219 471.820312 L 913.636719 483.257812 L 904.175781 492.59375 Z M 903.214844 470.804688 L 912.675781 461.464844 L 924.113281 472.898438 L 914.652344 482.238281 Z M 913.695312 460.445312 L 923.15625 451.109375 L 934.59375 462.542969 L 925.191406 471.882812 Z M 924.234375 450.089844 L 933.695312 440.75 L 945.132812 452.183594 L 935.671875 461.523438 Z M 923.15625 449.011719 L 911.71875 437.578125 L 921.179688 428.238281 L 932.617188 439.671875 Z M 922.136719 450.089844 L 912.675781 459.429688 L 901.238281 447.933594 L 910.699219 438.59375 Z M 900.160156 446.855469 L 888.726562 435.421875 L 898.1875 426.082031 L 909.625 437.578125 Z M 899.085938 447.933594 L 889.621094 457.273438 L 878.1875 445.839844 L 887.648438 436.441406 Z M 888.605469 458.292969 L 879.144531 467.570312 L 867.707031 456.136719 L 877.167969 446.796875 Z M 878.125 468.648438 L 868.664062 477.988281 L 857.226562 466.554688 L 866.6875 457.214844 Z M 867.585938 479.003906 L 858.125 488.285156 L 846.6875 476.851562 L 856.148438 467.511719 Z M 857.105469 489.363281 L 847.644531 498.703125 L 836.207031 487.265625 L 845.667969 477.929688 Z M 846.566406 499.71875 L 837.167969 509 L 825.730469 497.5625 L 835.191406 488.226562 Z M 836.089844 510.078125 L 826.628906 519.414062 L 815.191406 507.980469 L 824.652344 498.640625 Z M 838.066406 532.945312 L 828.605469 542.285156 L 817.167969 530.851562 L 826.628906 521.511719 Z M 839.144531 533.964844 L 850.582031 545.398438 L 841.117188 554.738281 L 829.679688 543.304688 Z M 840.21875 532.945312 L 849.683594 523.605469 L 861.121094 535.042969 L 851.65625 544.378906 Z M 850.699219 522.589844 L 860.160156 513.25 L 871.597656 524.683594 L 862.136719 534.023438 Z M 872.675781 525.761719 L 884.113281 537.195312 L 874.652344 546.535156 L 863.214844 535.101562 Z M 873.695312 524.742188 L 883.15625 515.40625 L 894.59375 526.839844 L 885.132812 536.179688 Z M 884.234375 514.386719 L 893.695312 505.046875 L 905.132812 516.484375 L 895.671875 525.820312 Z M 894.710938 504.03125 L 904.175781 494.691406 L 915.613281 506.125 L 906.210938 515.464844 Z M 905.25 493.671875 L 914.714844 484.332031 L 926.152344 495.769531 L 916.6875 505.109375 Z M 915.730469 483.316406 L 925.191406 473.976562 L 936.628906 485.410156 L 927.167969 494.75 Z M 926.210938 472.960938 L 935.671875 463.621094 L 947.109375 475.054688 L 937.648438 484.394531 Z M 936.75 462.601562 L 946.210938 453.261719 L 957.648438 464.699219 L 948.1875 474.035156 Z M 934.714844 439.734375 L 944.175781 430.394531 L 955.613281 441.828125 L 946.152344 451.167969 Z M 933.695312 438.65625 L 922.199219 427.21875 L 931.660156 417.882812 L 943.15625 429.375 Z M 921.179688 426.144531 L 909.742188 414.707031 L 919.203125 405.367188 L 930.640625 416.804688 Z M 920.101562 427.21875 L 910.640625 436.558594 L 899.203125 425.066406 L 908.664062 415.726562 Z M 898.1875 424.046875 L 886.75 412.613281 L 896.210938 403.273438 L 907.648438 414.707031 Z M 897.109375 425.066406 L 887.648438 434.40625 L 876.210938 422.96875 L 885.671875 413.628906 Z M 886.628906 435.421875 L 877.167969 444.761719 L 865.730469 433.328125 L 875.191406 423.988281 Z M 876.089844 445.777344 L 866.628906 455.117188 L 855.191406 443.625 L 864.652344 434.285156 Z M 865.609375 456.136719 L 856.148438 465.476562 L 844.710938 454.039062 L 854.171875 444.703125 Z M 855.070312 466.492188 L 845.609375 475.832031 L 834.171875 464.339844 L 843.632812 455 Z M 844.59375 476.851562 L 835.128906 486.191406 L 823.695312 474.753906 L 833.15625 465.414062 Z M 834.054688 487.207031 L 824.589844 496.546875 L 813.152344 485.113281 L 822.617188 475.773438 Z M 823.574219 497.5625 L 814.113281 506.902344 L 802.675781 495.46875 L 812.136719 486.128906 Z M 825.550781 520.433594 L 816.089844 529.773438 L 804.652344 518.339844 L 814.113281 509 Z M 815.070312 530.789062 L 805.609375 540.128906 L 794.171875 528.636719 L 803.632812 519.296875 Z M 816.148438 531.808594 L 827.585938 543.242188 L 818.125 552.582031 L 806.6875 541.148438 Z M 828.605469 544.320312 L 840.042969 555.753906 L 830.578125 565.09375 L 819.203125 553.660156 Z M 841.117188 556.832031 L 852.554688 568.269531 L 843.15625 577.605469 L 831.71875 566.171875 Z M 842.195312 555.816406 L 851.65625 546.476562 L 863.09375 557.910156 L 853.632812 567.25 Z M 852.675781 545.457031 L 862.136719 536.117188 L 873.574219 547.554688 L 864.113281 556.894531 Z M 874.652344 548.632812 L 886.089844 560.066406 L 876.6875 569.40625 L 865.191406 557.96875 Z M 875.730469 547.613281 L 885.191406 538.273438 L 896.628906 549.707031 L 887.167969 559.046875 Z M 886.210938 537.257812 L 895.671875 527.917969 L 907.109375 539.351562 L 897.648438 548.691406 Z M 896.75 526.898438 L 906.210938 517.558594 L 917.648438 528.996094 L 908.1875 538.335938 Z M 907.226562 516.542969 L 916.6875 507.203125 L 928.125 518.636719 L 918.664062 527.976562 Z M 917.707031 506.183594 L 927.167969 496.847656 L 938.605469 508.28125 L 929.144531 517.621094 Z M 928.246094 495.828125 L 937.707031 486.488281 L 949.144531 497.921875 L 939.683594 507.261719 Z M 938.726562 485.472656 L 948.1875 476.132812 L 959.625 487.566406 L 950.222656 496.90625 Z M 949.265625 475.113281 L 958.726562 465.773438 L 970.164062 477.210938 L 960.703125 486.550781 Z M 947.230469 452.246094 L 956.691406 442.90625 L 968.128906 454.339844 L 958.726562 463.679688 Z M 886.148438 398.246094 C 887.226562 397.765625 888.484375 397.347656 889.863281 396.988281 C 890.402344 396.867188 890.941406 396.6875 891.539062 396.570312 C 894.59375 395.851562 898.1875 395.3125 902.199219 395.132812 C 902.917969 395.132812 903.636719 395.070312 904.355469 395.070312 C 905.851562 395.070312 907.347656 395.132812 908.964844 395.191406 L 918.066406 404.292969 L 908.664062 413.691406 L 897.226562 402.253906 L 904.414062 395.132812 C 903.695312 395.132812 902.976562 395.132812 902.257812 395.191406 L 896.148438 401.179688 L 891.539062 396.570312 C 890.941406 396.6875 890.402344 396.867188 889.863281 396.988281 L 895.070312 402.195312 L 885.671875 411.535156 L 876.867188 402.734375 C 879.863281 401.058594 882.917969 399.621094 886.148438 398.246094 Z M 875.492188 403.453125 L 884.59375 412.554688 L 875.132812 421.890625 L 864.234375 410.996094 C 868.066406 408.121094 871.71875 405.609375 875.492188 403.453125 Z M 851.777344 421.472656 C 852.136719 421.113281 852.496094 420.816406 852.855469 420.457031 C 856.449219 417.222656 859.800781 414.410156 863.035156 411.894531 L 874.054688 422.910156 L 864.652344 432.25 L 852.855469 420.457031 C 852.496094 420.753906 852.136719 421.113281 851.777344 421.472656 L 863.574219 433.265625 L 854.113281 442.605469 L 842.078125 430.574219 C 845.550781 427.21875 848.722656 424.167969 851.777344 421.472656 Z M 833.09375 439.433594 C 835.910156 436.621094 838.542969 434.046875 841.058594 431.589844 L 853.09375 443.625 L 843.632812 452.964844 L 831.597656 440.929688 C 832.136719 440.390625 832.617188 439.914062 833.09375 439.433594 Z M 830.640625 442.007812 L 842.617188 453.980469 L 833.15625 463.320312 L 822.195312 452.425781 C 825.011719 448.53125 827.824219 445.0625 830.640625 442.007812 Z M 821.359375 453.621094 L 832.078125 464.339844 L 822.617188 473.675781 L 813.992188 465.054688 C 816.449219 460.925781 818.902344 457.09375 821.359375 453.621094 Z M 813.214844 466.375 L 821.539062 474.695312 L 812.078125 484.035156 L 806.628906 478.585938 C 808.84375 474.214844 811 470.207031 813.214844 466.375 Z M 805.96875 479.964844 L 811.058594 485.050781 L 801.597656 494.390625 L 799.980469 492.773438 C 801.957031 488.285156 803.933594 483.972656 805.96875 479.964844 Z M 799.320312 494.210938 L 800.519531 495.410156 L 797.523438 498.34375 C 798.125 496.964844 798.722656 495.589844 799.320312 494.210938 Z M 792.792969 510.316406 C 792.972656 509.898438 793.152344 509.417969 793.273438 509 C 793.453125 508.519531 793.632812 507.980469 793.871094 507.503906 C 794.351562 506.304688 794.832031 505.109375 795.308594 503.851562 C 795.371094 503.671875 795.429688 503.550781 795.488281 503.371094 L 795.730469 502.894531 C 795.730469 502.894531 795.667969 503.070312 795.488281 503.371094 C 795.667969 502.894531 795.910156 502.355469 796.089844 501.875 L 801.597656 496.425781 L 813.035156 507.863281 L 803.632812 517.199219 L 793.871094 507.441406 C 793.691406 507.921875 793.453125 508.460938 793.273438 508.9375 L 802.554688 518.21875 L 793.09375 527.558594 L 789.203125 523.667969 C 790.21875 518.457031 791.597656 513.847656 792.792969 510.316406 Z M 788.902344 525.460938 L 792.074219 528.636719 L 788.003906 532.648438 C 788.183594 530.132812 788.542969 527.738281 788.902344 525.460938 Z M 814.472656 593.710938 C 813.992188 593.949219 805.25 597.960938 794.351562 602.929688 C 793.035156 603.53125 791.714844 604.128906 790.398438 604.726562 C 772.675781 612.808594 751.714844 622.449219 751.714844 622.449219 C 751.714844 622.449219 748.421875 623.824219 747.882812 623.046875 C 747.765625 622.925781 747.703125 622.808594 747.585938 622.6875 C 747.464844 622.566406 747.34375 622.507812 747.226562 622.386719 C 746.445312 621.847656 747.824219 618.554688 747.824219 618.554688 C 747.824219 618.554688 756.328125 599.9375 764.113281 582.996094 C 764.710938 581.738281 765.25 580.421875 765.847656 579.222656 C 771.476562 566.949219 776.328125 556.355469 776.566406 555.875 C 777.164062 554.617188 777.34375 552.941406 780.339844 553.0625 C 783.332031 553.179688 783.511719 557.191406 783.511719 557.191406 C 783.632812 557.851562 784.230469 558.929688 785.128906 560.246094 C 785.371094 560.664062 785.667969 561.082031 785.96875 561.503906 C 788.902344 565.691406 793.632812 571.5 796.027344 574.3125 C 796.027344 574.3125 796.027344 574.3125 796.089844 574.3125 C 796.449219 574.613281 796.808594 574.914062 797.226562 575.273438 C 800.640625 578.144531 806.449219 582.816406 810.21875 585.210938 C 810.699219 585.507812 811.117188 585.808594 811.539062 585.988281 C 812.195312 586.347656 812.796875 586.648438 813.214844 586.707031 C 813.214844 586.707031 817.226562 586.945312 817.347656 589.878906 C 817.464844 592.8125 815.730469 593.113281 814.472656 593.710938 Z M 806.089844 566.53125 L 805.070312 565.515625 L 793.632812 554.078125 L 792.613281 553.0625 L 788.542969 548.992188 C 787.824219 544.199219 787.703125 539.472656 787.945312 534.921875 L 793.214844 529.714844 L 804.652344 541.148438 L 792.613281 553 L 793.632812 554.019531 L 805.667969 542.164062 L 817.105469 553.601562 L 805.070312 565.453125 L 806.089844 566.53125 L 818.125 554.679688 L 829.5625 566.113281 L 817.527344 577.964844 Z M 821.65625 582.15625 L 818.601562 579.105469 L 830.640625 567.25 L 842.078125 578.683594 L 837.824219 582.875 C 832.675781 583.234375 827.167969 583.113281 821.65625 582.15625 Z M 840.160156 582.695312 L 843.15625 579.703125 L 845.429688 581.976562 C 843.695312 582.277344 841.957031 582.515625 840.160156 582.695312 Z M 852.734375 580.480469 C 851 580.898438 849.144531 581.320312 847.226562 581.679688 L 844.234375 578.683594 L 853.695312 569.34375 L 861.597656 577.246094 C 858.484375 578.386719 855.550781 579.460938 852.734375 580.480469 Z M 866.6875 575.210938 C 865.429688 575.691406 864.234375 576.171875 863.035156 576.648438 C 862.796875 576.769531 862.554688 576.828125 862.257812 576.949219 C 862.496094 576.828125 862.734375 576.769531 863.035156 576.648438 L 854.710938 568.328125 L 864.171875 558.988281 L 875.609375 570.421875 L 873.695312 572.339844 C 871.417969 573.296875 869.082031 574.253906 866.6875 575.210938 Z M 905.492188 556.535156 C 905.070312 556.773438 904.59375 557.074219 904.175781 557.3125 C 900.339844 559.527344 896.269531 561.742188 892.019531 563.898438 C 891.539062 564.136719 891.058594 564.375 890.640625 564.617188 C 886.570312 566.652344 882.316406 568.625 877.828125 570.601562 L 877.707031 570.484375 L 887.167969 561.144531 L 890.640625 564.617188 C 891.121094 564.375 891.597656 564.136719 892.019531 563.898438 L 888.246094 560.125 L 897.648438 550.785156 L 904.175781 557.3125 C 904.652344 557.074219 905.074219 556.773438 905.492188 556.535156 L 898.726562 549.769531 L 908.1875 540.429688 L 916.929688 549.171875 C 913.457031 551.625 909.625 554.078125 905.492188 556.535156 Z M 918.1875 548.332031 L 909.265625 539.410156 L 918.726562 530.074219 L 928.605469 539.949219 C 925.492188 542.703125 922.019531 545.519531 918.1875 548.332031 Z M 931.121094 537.4375 C 930.640625 537.914062 930.101562 538.394531 929.625 538.933594 L 919.742188 529.054688 L 929.203125 519.714844 L 939.023438 529.535156 C 939.203125 529.355469 939.382812 529.175781 939.5625 528.996094 C 939.382812 529.175781 939.203125 529.355469 939.023438 529.535156 C 936.511719 531.988281 933.933594 534.683594 931.121094 537.4375 Z M 940.042969 528.457031 L 930.28125 518.699219 L 939.742188 509.359375 L 949.144531 518.757812 C 946.390625 521.8125 943.335938 524.984375 940.042969 528.457031 Z M 950.101562 517.679688 L 940.761719 508.339844 L 950.222656 499 L 958.726562 507.503906 C 956.152344 510.734375 953.335938 514.085938 950.101562 517.679688 Z M 959.625 506.304688 L 951.300781 497.984375 L 960.761719 488.644531 L 967.167969 495.050781 C 964.953125 498.820312 962.5 502.472656 959.625 506.304688 Z M 972.320312 484.394531 C 971 487.625 969.503906 490.679688 967.886719 493.671875 L 961.78125 487.566406 L 971.242188 478.226562 L 973.636719 480.621094 C 973.21875 482.058594 972.738281 483.316406 972.320312 484.394531 Z M 972.257812 477.269531 L 974.835938 474.753906 C 974.59375 476.25 974.355469 477.6875 973.996094 479.003906 Z M 975.132812 472.359375 L 971.242188 476.191406 L 959.804688 464.757812 L 969.265625 455.417969 L 975.433594 461.585938 C 975.613281 465.476562 975.492188 469.066406 975.132812 472.359375 Z M 975.132812 472.359375 " fill-opacity="1" fill-rule="nonzero"/></g><g clip-path="url(#db74cb8c28)"><path fill="#000000" d="M 848.964844 759.363281 C 847.347656 755.113281 843.632812 751.160156 841 749.664062 C 838.425781 748.167969 836.566406 746.972656 836.089844 747.089844 C 835.667969 747.152344 770.457031 682.734375 770.457031 682.734375 L 760.039062 676.386719 L 750.757812 671.058594 L 717.164062 637.832031 L 700.21875 615.742188 L 680.398438 573.296875 L 670.21875 551.984375 L 668.359375 548.03125 L 666.625 544.378906 L 666.085938 542.34375 C 666.027344 542.226562 663.390625 532.226562 658.480469 518.160156 C 658.300781 517.621094 658.121094 517.140625 657.941406 516.601562 C 657.640625 515.765625 657.34375 514.925781 657.042969 514.085938 C 656.683594 513.011719 656.265625 511.933594 655.847656 510.855469 C 654.886719 508.28125 653.929688 505.648438 652.851562 502.953125 C 652.671875 502.472656 652.433594 501.933594 652.253906 501.457031 C 652.191406 501.277344 652.074219 501.035156 652.011719 500.855469 C 650.277344 496.488281 648.480469 492.296875 646.683594 488.226562 C 646.445312 487.746094 646.265625 487.265625 646.023438 486.789062 C 644.050781 482.359375 642.011719 478.109375 639.976562 474.097656 C 639.738281 473.617188 639.5 473.199219 639.257812 472.71875 C 637.941406 470.144531 636.625 467.628906 635.246094 465.234375 C 634.347656 463.679688 633.449219 462.121094 632.550781 460.625 C 632.3125 460.207031 632.011719 459.726562 631.773438 459.308594 C 629.316406 455.238281 626.863281 451.464844 624.347656 447.996094 C 624.046875 447.574219 623.75 447.15625 623.449219 446.796875 C 620.636719 442.964844 617.820312 439.554688 615.007812 436.5 C 614.648438 436.140625 614.347656 435.78125 613.988281 435.421875 C 613.507812 434.882812 613.03125 434.40625 612.492188 433.925781 C 609.675781 431.171875 607.042969 428.539062 604.527344 426.082031 C 604.167969 425.722656 603.808594 425.363281 603.449219 425.066406 C 600.035156 421.773438 596.863281 418.71875 593.808594 415.964844 C 593.449219 415.605469 593.089844 415.308594 592.730469 414.949219 C 589.199219 411.773438 585.84375 408.902344 582.550781 406.328125 C 582.132812 406.027344 581.773438 405.726562 581.351562 405.429688 C 577.582031 402.554688 573.929688 400.039062 570.214844 397.824219 C 569.796875 397.585938 569.316406 397.285156 568.898438 397.046875 C 565.066406 394.832031 561.171875 392.917969 556.980469 391.179688 C 556.742188 391.0625 556.503906 391 556.261719 390.882812 C 555.785156 390.703125 555.246094 390.523438 554.707031 390.34375 C 551.113281 389.144531 546.921875 388.246094 542.429688 387.828125 C 541.234375 387.707031 539.976562 387.648438 538.777344 387.589844 C 538.117188 387.527344 537.398438 387.527344 536.742188 387.527344 C 534.707031 387.46875 532.667969 387.527344 530.632812 387.648438 C 529.976562 387.707031 529.316406 387.769531 528.65625 387.828125 C 526.859375 388.007812 525.003906 388.246094 523.207031 388.546875 C 518.597656 389.324219 514.167969 390.460938 509.792969 392.019531 C 509.257812 392.199219 508.777344 392.378906 508.238281 392.617188 C 506.023438 393.457031 503.867188 394.414062 501.710938 395.492188 C 498.777344 396.988281 495.902344 398.664062 493.148438 400.519531 C 492.730469 400.820312 492.308594 401.058594 491.890625 401.359375 C 487.9375 404.171875 484.164062 407.34375 480.691406 410.9375 C 480.332031 411.296875 479.972656 411.65625 479.613281 412.015625 C 479.253906 412.375 478.894531 412.734375 478.597656 413.089844 C 474.765625 417.101562 471.410156 421.414062 468.597656 425.964844 C 468.355469 426.382812 468.058594 426.800781 467.816406 427.28125 C 466.917969 428.777344 466.082031 430.332031 465.304688 431.890625 C 463.507812 435.480469 462.007812 439.253906 460.8125 443.085938 C 460.632812 443.625 460.511719 444.164062 460.332031 444.703125 C 459.496094 447.515625 458.835938 450.449219 458.355469 453.324219 C 457.757812 457.09375 457.398438 460.804688 457.339844 464.519531 C 457.339844 465.234375 457.339844 465.894531 457.339844 466.613281 C 457.339844 466.671875 457.339844 466.734375 457.339844 466.792969 C 457.339844 467.453125 457.398438 468.167969 457.398438 468.828125 C 457.457031 470.027344 457.519531 471.28125 457.636719 472.480469 C 458.058594 476.96875 458.957031 481.160156 460.152344 484.753906 C 460.332031 485.292969 460.511719 485.769531 460.691406 486.308594 C 460.8125 486.550781 460.871094 486.789062 460.992188 487.027344 C 462.726562 491.21875 464.644531 495.109375 466.859375 498.941406 C 467.097656 499.359375 467.398438 499.839844 467.636719 500.257812 C 469.855469 503.96875 472.367188 507.621094 475.242188 511.394531 C 475.542969 511.8125 475.84375 512.171875 476.140625 512.589844 C 478.714844 515.824219 481.53125 519.175781 484.765625 522.769531 C 485.0625 523.128906 485.421875 523.488281 485.78125 523.847656 C 488.535156 526.898438 491.589844 530.074219 494.882812 533.484375 C 495.242188 533.84375 495.542969 534.203125 495.902344 534.5625 C 498.359375 537.078125 500.992188 539.710938 503.746094 542.523438 C 504.226562 543.003906 504.765625 543.484375 505.242188 544.019531 C 505.601562 544.378906 505.960938 544.679688 506.320312 545.039062 C 509.375 547.851562 512.847656 550.726562 516.621094 553.480469 C 517.039062 553.78125 517.398438 554.078125 517.820312 554.378906 C 521.292969 556.894531 525.066406 559.347656 529.136719 561.800781 C 529.554688 562.042969 530.035156 562.339844 530.453125 562.582031 C 531.949219 563.476562 533.507812 564.375 535.066406 565.273438 C 537.460938 566.589844 539.976562 567.96875 542.550781 569.285156 C 543.027344 569.523438 543.449219 569.765625 543.925781 570.003906 C 548 572.039062 552.191406 574.074219 556.621094 576.050781 C 557.101562 576.289062 557.582031 576.46875 558.058594 576.707031 C 562.132812 578.503906 566.324219 580.300781 570.695312 582.035156 C 570.875 582.097656 571.113281 582.214844 571.292969 582.277344 C 571.773438 582.457031 572.3125 582.695312 572.789062 582.875 C 574.046875 583.355469 575.246094 583.832031 576.441406 584.3125 C 577.582031 584.730469 578.71875 585.148438 579.855469 585.570312 C 582.132812 586.40625 584.347656 587.1875 586.441406 587.964844 C 586.980469 588.144531 587.460938 588.324219 588 588.503906 C 602.070312 593.410156 612.011719 596.105469 612.191406 596.105469 L 614.167969 596.644531 L 614.226562 596.644531 L 618.058594 598.378906 L 643.570312 609.996094 L 661.296875 618.257812 L 661.414062 618.375 L 661.472656 618.316406 L 686.027344 629.75 L 708.121094 646.695312 L 741.355469 680.277344 L 746.6875 689.558594 L 753.035156 699.976562 C 753.035156 699.976562 817.527344 765.109375 817.40625 765.589844 C 817.285156 766.070312 818.484375 767.925781 819.980469 770.5 C 821.476562 773.074219 825.429688 776.84375 829.679688 778.460938 C 832.976562 779.660156 839.683594 773.671875 841.539062 771.9375 C 841.539062 771.9375 841.597656 771.875 841.777344 771.695312 C 841.957031 771.578125 842.015625 771.457031 842.015625 771.457031 C 844.171875 769.363281 850.160156 762.65625 848.964844 759.363281 Z M 651.953125 548.570312 L 647.882812 552.640625 L 635.84375 540.789062 L 647.28125 529.355469 L 652.550781 534.5625 C 652.792969 539.050781 652.671875 543.78125 651.953125 548.570312 Z M 624.289062 529.414062 L 614.828125 520.074219 L 626.265625 508.640625 L 635.726562 517.980469 Z M 636.804688 518.996094 L 646.265625 528.335938 L 634.765625 539.769531 L 625.304688 530.429688 Z M 527.757812 461.105469 L 537.21875 470.445312 L 525.722656 481.9375 L 516.261719 472.601562 Z M 515.242188 471.582031 L 505.78125 462.242188 L 517.21875 450.808594 L 526.679688 460.148438 Z M 559.257812 490.140625 L 549.796875 480.800781 L 561.234375 469.367188 L 570.695312 478.707031 Z M 571.773438 479.722656 L 581.234375 489.0625 L 569.734375 500.496094 L 560.273438 491.160156 Z M 548.71875 479.785156 L 539.257812 470.445312 L 550.695312 459.011719 L 560.15625 468.347656 Z M 538.238281 469.425781 L 528.777344 460.085938 L 540.214844 448.652344 L 549.675781 457.992188 Z M 538.238281 471.460938 L 547.699219 480.800781 L 536.261719 492.234375 L 526.800781 482.898438 Z M 548.71875 481.820312 L 558.179688 491.160156 L 546.742188 502.652344 L 537.28125 493.3125 Z M 559.257812 492.175781 L 568.71875 501.515625 L 557.28125 512.949219 L 547.820312 503.609375 Z M 569.734375 502.535156 L 579.199219 511.871094 L 567.761719 523.308594 L 558.300781 513.96875 Z M 570.8125 501.515625 L 582.25 490.082031 L 591.710938 499.421875 L 580.273438 510.855469 Z M 592.789062 500.4375 L 602.25 509.777344 L 590.816406 521.210938 L 581.292969 511.871094 Z M 603.269531 510.796875 L 612.730469 520.132812 L 601.234375 531.570312 L 591.773438 522.230469 Z M 604.347656 509.71875 L 615.785156 498.28125 L 625.246094 507.621094 L 613.75 519.058594 Z M 603.269531 508.699219 L 593.808594 499.359375 L 605.246094 487.925781 L 614.707031 497.265625 Z M 592.730469 498.34375 L 583.269531 489.003906 L 594.707031 477.570312 L 604.167969 486.90625 Z M 582.25 487.984375 L 572.789062 478.644531 L 584.226562 467.210938 L 593.6875 476.550781 Z M 571.773438 477.628906 L 562.3125 468.289062 L 573.75 456.855469 L 583.210938 466.195312 Z M 561.234375 467.273438 L 551.773438 457.933594 L 563.210938 446.496094 L 572.671875 455.835938 Z M 550.753906 456.914062 L 541.292969 447.574219 L 552.730469 436.140625 L 562.191406 445.421875 Z M 540.214844 446.558594 L 530.753906 437.21875 L 542.191406 425.785156 L 551.652344 435.121094 Z M 539.195312 447.574219 L 527.757812 459.011719 L 518.296875 449.671875 L 529.734375 438.234375 Z M 517.21875 448.710938 L 507.757812 439.375 L 519.195312 427.9375 L 528.65625 437.277344 Z M 516.203125 449.730469 L 504.765625 461.164062 L 495.242188 451.886719 L 506.679688 440.449219 Z M 503.6875 462.242188 L 492.25 473.675781 L 482.789062 464.339844 L 494.226562 452.902344 Z M 504.703125 463.261719 L 514.167969 472.601562 L 502.730469 484.035156 L 493.269531 474.753906 Z M 515.242188 473.617188 L 524.707031 482.957031 L 513.207031 494.390625 L 503.746094 485.050781 Z M 525.722656 483.972656 L 535.183594 493.3125 L 523.746094 504.75 L 514.285156 495.410156 Z M 536.203125 494.332031 L 545.664062 503.671875 L 534.226562 515.105469 L 524.765625 505.765625 Z M 546.742188 504.6875 L 556.203125 514.027344 L 544.765625 525.460938 L 535.304688 516.125 Z M 557.222656 515.046875 L 566.683594 524.386719 L 555.246094 535.820312 L 545.785156 526.480469 Z M 567.761719 525.402344 L 577.222656 534.742188 L 565.785156 546.175781 L 556.324219 536.835938 Z M 568.777344 524.386719 L 580.214844 512.949219 L 589.675781 522.289062 L 578.238281 533.722656 Z M 590.753906 523.246094 L 600.214844 532.585938 L 588.777344 544.019531 L 579.316406 534.683594 Z M 601.292969 533.605469 L 610.753906 542.945312 L 599.257812 554.378906 L 589.796875 545.039062 Z M 602.3125 532.585938 L 613.75 521.152344 L 623.210938 530.492188 L 611.773438 541.925781 Z M 626.265625 506.542969 L 616.804688 497.207031 L 628.242188 485.769531 L 637.703125 495.109375 Z M 615.785156 496.1875 L 606.324219 486.847656 L 617.761719 475.414062 L 627.222656 484.753906 Z M 605.246094 485.832031 L 595.84375 476.492188 L 607.28125 465.054688 L 616.742188 474.394531 Z M 594.765625 475.472656 L 585.304688 466.132812 L 596.742188 454.699219 L 606.203125 464.039062 Z M 584.289062 465.117188 L 574.824219 455.777344 L 586.261719 444.34375 L 595.726562 453.683594 Z M 573.75 454.757812 L 564.285156 445.421875 L 575.722656 433.984375 L 585.1875 443.324219 Z M 563.269531 444.402344 L 553.808594 435.0625 L 565.246094 423.628906 L 574.707031 432.96875 Z M 552.730469 434.046875 L 543.269531 424.707031 L 554.707031 413.269531 L 564.167969 422.609375 Z M 542.25 423.6875 L 532.789062 414.347656 L 544.226562 402.914062 L 553.6875 412.253906 Z M 541.171875 424.707031 L 529.734375 436.140625 L 520.273438 426.859375 L 531.769531 415.425781 Z M 519.195312 425.84375 L 509.792969 416.503906 L 521.230469 405.070312 L 530.695312 414.410156 Z M 518.179688 426.859375 L 506.742188 438.355469 L 497.28125 429.015625 L 508.71875 417.582031 Z M 505.664062 439.375 L 494.226562 450.808594 L 484.765625 441.527344 L 496.203125 430.09375 Z M 493.148438 451.886719 L 481.710938 463.320312 L 472.25 453.980469 L 483.6875 442.546875 Z M 481.710938 465.414062 L 491.171875 474.753906 L 479.675781 486.191406 L 470.214844 476.851562 Z M 492.191406 475.773438 L 501.652344 485.113281 L 490.214844 496.546875 L 480.753906 487.207031 Z M 502.730469 486.128906 L 512.191406 495.46875 L 500.753906 506.902344 L 491.292969 497.5625 Z M 513.207031 496.488281 L 522.667969 505.824219 L 511.230469 517.261719 L 501.769531 507.921875 Z M 523.746094 506.84375 L 533.207031 516.183594 L 521.769531 527.617188 L 512.308594 518.277344 Z M 534.226562 517.199219 L 543.6875 526.539062 L 532.25 537.976562 L 522.789062 528.695312 Z M 544.707031 527.558594 L 554.167969 536.898438 L 542.730469 548.332031 L 533.269531 538.992188 Z M 555.246094 537.914062 L 564.707031 547.253906 L 553.269531 558.6875 L 543.746094 549.410156 Z M 565.722656 548.273438 L 575.183594 557.609375 L 563.75 569.046875 L 554.285156 559.765625 Z M 566.800781 547.253906 L 578.238281 535.820312 L 587.699219 545.160156 L 576.261719 556.59375 Z M 588.777344 546.117188 L 598.238281 555.457031 L 586.800781 566.890625 L 577.28125 557.609375 Z M 599.257812 556.472656 L 608.71875 565.8125 L 597.28125 577.246094 L 587.820312 567.910156 Z M 600.335938 555.457031 L 611.773438 544.019531 L 621.234375 553.359375 L 609.796875 564.796875 Z M 612.789062 542.945312 L 624.226562 531.507812 L 633.691406 540.847656 L 622.253906 552.28125 Z M 634.765625 541.804688 L 646.804688 553.660156 L 635.367188 565.15625 L 623.332031 553.300781 Z M 652.371094 532.289062 L 648.300781 528.277344 L 651.472656 525.101562 C 651.894531 527.4375 652.191406 529.832031 652.371094 532.289062 Z M 647.582031 509.957031 C 648.78125 513.488281 650.15625 518.097656 651.113281 523.308594 L 647.222656 527.199219 L 637.761719 517.859375 L 647.042969 508.578125 C 647.28125 509.117188 647.460938 509.539062 647.582031 509.957031 Z M 644.886719 503.011719 C 644.769531 502.714844 644.648438 502.535156 644.648438 502.535156 L 644.886719 503.011719 C 644.949219 503.191406 645.007812 503.3125 645.066406 503.492188 C 645.546875 504.75 646.023438 505.945312 646.503906 507.144531 L 636.742188 516.902344 L 627.28125 507.5625 L 638.71875 496.128906 L 644.230469 501.574219 C 644.46875 502.054688 644.707031 502.535156 644.886719 503.011719 Z M 642.851562 498.042969 L 639.855469 495.109375 L 641.054688 493.914062 C 641.652344 495.230469 642.253906 496.605469 642.851562 498.042969 Z M 640.457031 492.355469 L 638.839844 493.972656 L 629.378906 484.632812 L 634.46875 479.542969 C 636.445312 483.675781 638.480469 487.925781 640.457031 492.355469 Z M 633.75 478.167969 L 628.300781 483.617188 L 618.839844 474.277344 L 627.164062 465.953125 C 629.378906 469.847656 631.59375 473.917969 633.75 478.167969 Z M 626.382812 464.699219 L 617.761719 473.316406 L 608.300781 463.980469 L 619.019531 453.261719 C 621.535156 456.792969 623.988281 460.566406 626.382812 464.699219 Z M 618.179688 452.066406 L 607.28125 462.960938 L 597.820312 453.621094 L 609.796875 441.648438 C 612.609375 444.703125 615.367188 448.175781 618.179688 452.066406 Z M 607.28125 439.074219 C 607.761719 439.554688 608.238281 440.09375 608.777344 440.570312 L 596.742188 452.605469 L 587.28125 443.265625 L 599.316406 431.230469 C 601.890625 433.6875 604.527344 436.320312 607.28125 439.074219 Z M 598.300781 430.214844 L 586.261719 442.246094 L 576.800781 432.90625 L 588.660156 421.113281 C 591.652344 423.867188 594.886719 426.859375 598.300781 430.214844 Z M 587.519531 420.097656 L 575.722656 431.890625 L 566.261719 422.550781 L 577.28125 411.535156 C 580.574219 414.050781 583.988281 416.863281 587.519531 420.097656 Z M 576.144531 410.636719 L 565.246094 421.53125 L 555.785156 412.195312 L 564.886719 403.09375 C 568.660156 405.308594 572.371094 407.761719 576.144531 410.636719 Z M 554.226562 397.945312 C 557.460938 399.261719 560.515625 400.757812 563.507812 402.375 L 554.707031 411.175781 L 545.246094 401.835938 L 550.453125 396.628906 C 551.890625 397.046875 553.148438 397.464844 554.226562 397.945312 Z M 548.835938 396.210938 L 544.226562 400.820312 L 538.117188 394.832031 C 542.191406 394.953125 545.785156 395.492188 548.835938 396.210938 Z M 535.964844 394.773438 L 543.148438 401.898438 L 531.710938 413.332031 L 522.25 403.992188 L 531.351562 394.890625 C 532.96875 394.773438 534.527344 394.773438 535.964844 394.773438 Z M 524.527344 395.671875 C 526.082031 395.429688 527.640625 395.191406 529.136719 395.070312 L 521.230469 402.972656 L 515.902344 397.707031 C 519.015625 396.746094 521.949219 396.089844 524.527344 395.671875 Z M 514.285156 398.183594 L 520.214844 403.992188 L 508.71875 415.488281 L 498.71875 405.609375 C 504.105469 402.136719 509.375 399.800781 514.285156 398.183594 Z M 486.140625 416.023438 L 486.203125 415.964844 C 489.855469 412.195312 493.6875 409.019531 497.460938 406.507812 L 507.640625 416.5625 L 496.203125 428 L 485.125 417.042969 C 485.421875 416.683594 485.78125 416.382812 486.140625 416.023438 Z M 484.046875 418.0625 L 495.125 429.015625 L 483.6875 440.511719 L 474.226562 431.113281 C 476.742188 426.800781 479.972656 422.371094 484.046875 418.0625 Z M 473.445312 432.488281 L 482.667969 441.527344 L 471.230469 452.964844 L 467.039062 448.832031 C 468.238281 443.863281 470.214844 438.234375 473.445312 432.488281 Z M 465.84375 454.339844 C 466.023438 453.144531 466.261719 451.824219 466.558594 450.507812 L 470.152344 454.039062 L 465.242188 458.949219 C 465.363281 457.453125 465.601562 455.898438 465.84375 454.339844 Z M 465.0625 461.226562 L 471.230469 455.058594 L 480.691406 464.398438 L 469.253906 475.832031 L 465.363281 472 C 464.945312 468.707031 464.824219 465.117188 465.0625 461.226562 Z M 465.601562 474.394531 L 468.175781 476.910156 L 466.441406 478.644531 C 466.082031 477.328125 465.78125 475.890625 465.601562 474.394531 Z M 468.117188 484.035156 C 467.636719 482.957031 467.21875 481.699219 466.859375 480.324219 L 469.253906 477.929688 L 478.714844 487.265625 L 472.609375 493.375 C 470.933594 490.378906 469.433594 487.265625 468.117188 484.035156 Z M 473.328125 494.691406 L 479.675781 488.285156 L 489.136719 497.625 L 480.8125 505.945312 C 477.9375 502.175781 475.484375 498.460938 473.328125 494.691406 Z M 481.710938 507.144531 L 490.214844 498.640625 L 499.675781 507.980469 L 490.332031 517.320312 C 487.039062 513.789062 484.226562 510.375 481.710938 507.144531 Z M 491.292969 518.457031 L 500.691406 509.058594 L 510.152344 518.398438 L 500.394531 528.15625 C 497.039062 524.683594 494.046875 521.453125 491.292969 518.457031 Z M 509.257812 537.078125 C 506.441406 534.261719 503.867188 531.628906 501.410156 529.113281 L 511.230469 519.296875 L 520.691406 528.636719 L 510.8125 538.511719 C 510.273438 538.09375 509.734375 537.617188 509.257812 537.078125 Z M 511.832031 539.589844 L 521.710938 529.714844 L 531.171875 539.050781 L 522.25 547.972656 C 518.359375 545.160156 514.886719 542.40625 511.832031 539.589844 Z M 523.449219 548.8125 L 532.191406 540.070312 L 541.652344 549.410156 L 534.886719 556.175781 C 530.753906 553.78125 526.980469 551.324219 523.449219 548.8125 Z M 536.203125 556.953125 L 542.730469 550.425781 L 552.191406 559.765625 L 548.417969 563.539062 C 544.105469 561.382812 540.035156 559.167969 536.203125 556.953125 Z M 562.550781 570.183594 C 558.121094 568.207031 553.808594 566.230469 549.734375 564.195312 L 553.207031 560.722656 L 562.671875 570.0625 Z M 573.6875 574.851562 C 571.292969 573.894531 568.957031 572.9375 566.683594 571.980469 L 564.765625 570.0625 L 576.203125 558.628906 L 585.664062 567.96875 L 577.339844 576.289062 C 576.144531 575.871094 574.945312 575.332031 573.6875 574.851562 Z M 587.640625 580.121094 C 584.828125 579.105469 581.890625 578.027344 578.839844 576.886719 L 586.742188 568.984375 L 596.203125 578.324219 L 593.210938 581.320312 C 591.234375 580.960938 589.378906 580.601562 587.640625 580.121094 Z M 595.007812 581.617188 L 597.28125 579.34375 L 600.277344 582.335938 C 598.480469 582.15625 596.683594 581.917969 595.007812 581.617188 Z M 618.71875 581.796875 C 613.210938 582.753906 607.699219 582.875 602.550781 582.515625 L 598.300781 578.324219 L 609.738281 566.890625 L 621.773438 578.746094 Z M 610.816406 565.8125 L 622.253906 554.378906 L 634.289062 566.230469 L 622.851562 577.667969 Z M 693.152344 622.027344 C 693.03125 622.148438 692.914062 622.207031 692.792969 622.328125 C 692.671875 622.449219 692.613281 622.566406 692.492188 622.6875 C 691.953125 623.464844 688.660156 622.089844 688.660156 622.089844 C 688.660156 622.089844 667.703125 612.449219 649.976562 604.367188 C 648.660156 603.769531 647.34375 603.171875 646.023438 602.570312 C 635.1875 597.601562 626.382812 593.589844 625.90625 593.351562 C 624.648438 592.753906 622.972656 592.574219 623.089844 589.582031 C 623.210938 586.585938 627.222656 586.40625 627.222656 586.40625 C 627.640625 586.347656 628.179688 586.046875 628.898438 585.6875 C 629.316406 585.449219 629.738281 585.210938 630.214844 584.910156 C 633.988281 582.515625 639.738281 577.785156 643.210938 574.972656 C 643.628906 574.613281 643.988281 574.3125 644.347656 574.015625 C 644.347656 574.015625 644.347656 574.015625 644.410156 574.015625 C 646.742188 571.199219 651.535156 565.453125 654.46875 561.203125 C 654.769531 560.785156 655.066406 560.363281 655.308594 559.945312 C 656.144531 558.628906 656.742188 557.550781 656.921875 556.894531 C 656.921875 556.894531 657.164062 552.882812 660.097656 552.761719 C 663.03125 552.640625 663.210938 554.320312 663.871094 555.574219 C 664.109375 556.113281 668.960938 566.652344 674.589844 578.925781 C 675.1875 580.179688 675.726562 581.4375 676.324219 582.695312 C 684.109375 599.636719 692.613281 618.257812 692.613281 618.257812 C 692.613281 618.257812 693.929688 621.550781 693.152344 622.027344 Z M 693.152344 622.027344 " fill-opacity="1" fill-rule="nonzero"/></g><path fill="#000000" d="M 747.046875 475.710938 C 747.046875 476.640625 747 477.570312 746.910156 478.496094 C 746.816406 479.417969 746.679688 480.335938 746.5 481.25 C 746.320312 482.160156 746.09375 483.0625 745.824219 483.949219 C 745.554688 484.839844 745.242188 485.714844 744.882812 486.574219 C 744.527344 487.429688 744.132812 488.269531 743.695312 489.089844 C 743.253906 489.910156 742.777344 490.707031 742.261719 491.476562 C 741.746094 492.25 741.191406 492.996094 740.601562 493.714844 C 740.011719 494.433594 739.390625 495.121094 738.730469 495.777344 C 738.074219 496.4375 737.386719 497.058594 736.667969 497.648438 C 735.949219 498.238281 735.203125 498.792969 734.429688 499.308594 C 733.65625 499.824219 732.859375 500.300781 732.042969 500.738281 C 731.222656 501.175781 730.382812 501.574219 729.523438 501.929688 C 728.664062 502.285156 727.789062 502.597656 726.902344 502.867188 C 726.011719 503.136719 725.109375 503.363281 724.199219 503.542969 C 723.285156 503.726562 722.367188 503.863281 721.445312 503.953125 C 720.519531 504.042969 719.589844 504.089844 718.660156 504.089844 C 717.730469 504.089844 716.804688 504.042969 715.878906 503.953125 C 714.953125 503.863281 714.035156 503.726562 713.125 503.542969 C 712.210938 503.363281 711.3125 503.136719 710.421875 502.867188 C 709.53125 502.597656 708.65625 502.285156 707.800781 501.929688 C 706.941406 501.574219 706.101562 501.175781 705.28125 500.738281 C 704.460938 500.300781 703.664062 499.824219 702.890625 499.308594 C 702.121094 498.792969 701.375 498.238281 700.65625 497.648438 C 699.9375 497.058594 699.25 496.4375 698.589844 495.777344 C 697.933594 495.121094 697.308594 494.433594 696.71875 493.714844 C 696.128906 492.996094 695.578125 492.25 695.0625 491.476562 C 694.542969 490.707031 694.066406 489.910156 693.628906 489.089844 C 693.191406 488.269531 692.792969 487.429688 692.4375 486.574219 C 692.082031 485.714844 691.769531 484.839844 691.5 483.949219 C 691.230469 483.0625 691.003906 482.160156 690.824219 481.25 C 690.640625 480.335938 690.503906 479.417969 690.414062 478.496094 C 690.324219 477.570312 690.277344 476.640625 690.277344 475.710938 C 690.277344 474.785156 690.324219 473.855469 690.414062 472.929688 C 690.503906 472.007812 690.640625 471.089844 690.824219 470.175781 C 691.003906 469.265625 691.230469 468.363281 691.5 467.476562 C 691.769531 466.585938 692.082031 465.710938 692.4375 464.851562 C 692.792969 463.996094 693.191406 463.15625 693.628906 462.335938 C 694.066406 461.515625 694.542969 460.71875 695.0625 459.949219 C 695.578125 459.175781 696.128906 458.429688 696.71875 457.710938 C 697.308594 456.992188 697.933594 456.304688 698.589844 455.648438 C 699.25 454.988281 699.9375 454.367188 700.65625 453.777344 C 701.375 453.1875 702.121094 452.632812 702.890625 452.117188 C 703.664062 451.601562 704.460938 451.125 705.28125 450.6875 C 706.101562 450.25 706.941406 449.851562 707.800781 449.496094 C 708.65625 449.140625 709.53125 448.828125 710.421875 448.558594 C 711.3125 448.289062 712.210938 448.0625 713.125 447.882812 C 714.035156 447.699219 714.953125 447.5625 715.878906 447.472656 C 716.804688 447.382812 717.730469 447.335938 718.660156 447.335938 C 719.589844 447.335938 720.519531 447.382812 721.445312 447.472656 C 722.367188 447.5625 723.285156 447.699219 724.199219 447.882812 C 725.109375 448.0625 726.011719 448.289062 726.902344 448.558594 C 727.789062 448.828125 728.664062 449.140625 729.523438 449.496094 C 730.382812 449.851562 731.222656 450.25 732.042969 450.6875 C 732.859375 451.125 733.65625 451.601562 734.429688 452.117188 C 735.203125 452.632812 735.949219 453.1875 736.667969 453.777344 C 737.386719 454.367188 738.074219 454.988281 738.730469 455.648438 C 739.390625 456.304688 740.011719 456.992188 740.601562 457.710938 C 741.191406 458.429688 741.746094 459.175781 742.261719 459.949219 C 742.777344 460.71875 743.253906 461.515625 743.695312 462.335938 C 744.132812 463.15625 744.527344 463.996094 744.882812 464.851562 C 745.242188 465.710938 745.554688 466.585938 745.824219 467.476562 C 746.09375 468.363281 746.320312 469.265625 746.5 470.175781 C 746.679688 471.089844 746.816406 472.007812 746.910156 472.929688 C 747 473.855469 747.046875 474.785156 747.046875 475.710938 Z M 747.046875 475.710938 " fill-opacity="1" fill-rule="nonzero"/></svg>